<?xml version="1.0" encoding="UTF-8" standalone="no"?>
<svg
   xmlns:dc="http://purl.org/dc/elements/1.1/"
   xmlns:cc="http://creativecommons.org/ns#"
   xmlns:rdf="http://www.w3.org/1999/02/22-rdf-syntax-ns#"
   xmlns:svg="http://www.w3.org/2000/svg"
   xmlns="http://www.w3.org/2000/svg"
   xmlns:sodipodi="http://sodipodi.sourceforge.net/DTD/sodipodi-0.dtd"
   xmlns:inkscape="http://www.inkscape.org/namespaces/inkscape"
   version="1.0"
   width="100"
   height="32"
   viewBox="0 0 80 25.6"
   preserveAspectRatio="xMidYMid meet"
   id="svg2"
   inkscape:version="0.48.4 r9939"
   sodipodi:docname="LOGOS_POSTOBON_FINAL-01.svg">
  <title
     id="title2995">Postobón S. A. logo</title>
  <defs
     id="defs18" />
  <sodipodi:namedview
     pagecolor="#ffffff"
     bordercolor="#666666"
     borderopacity="1"
     objecttolerance="10"
     gridtolerance="10"
     guidetolerance="10"
     inkscape:pageopacity="0"
     inkscape:pageshadow="2"
     inkscape:window-width="1600"
     inkscape:window-height="844"
     id="namedview16"
     showgrid="false"
     inkscape:showpageshadow="false"
     inkscape:zoom="1"
     inkscape:cx="56.890711"
     inkscape:cy="14.705811"
     inkscape:window-x="-4"
     inkscape:window-y="-4"
     inkscape:window-maximized="1"
     inkscape:current-layer="svg2" />
  <metadata
     id="metadata4">
Created by potrace 1.13, written by Peter Selinger 2001-2015
<rdf:RDF>
  <cc:Work
     rdf:about="">
    <dc:format>image/svg+xml</dc:format>
    <dc:type
       rdf:resource="http://purl.org/dc/dcmitype/StillImage" />
    <dc:title>Postobón S. A. logo</dc:title>
  </cc:Work>
</rdf:RDF>
</metadata>
  <g
     transform="matrix(0.00464117,0,0,-0.0043635,-4.2982492,29.048913)"
     id="g6"
     style="fill:#ff0000;stroke:none">
    <path
       d="m 4485,6520 c -737,-55 -1625,-397 -2810,-1083 -358,-207 -507,-301 -543,-341 -62,-70 -112,-376 -115,-695 -2,-173 0,-200 16,-224 15,-23 25,-27 62,-27 49,0 55,4 308,190 78,58 257,181 397,275 1034,691 2022,1136 2752,1240 268,38 539,1 753,-104 176,-87 277,-191 326,-337 75,-225 -44,-493 -365,-823 -410,-420 -989,-708 -1981,-986 -72,-20 -138,-38 -147,-41 -10,-3 -18,0 -18,6 0,12 210,348 519,830 243,379 261,419 261,565 0,117 -24,178 -95,243 -54,50 -85,62 -155,62 -67,0 -96,-18 -149,-88 -114,-155 -486,-733 -927,-1438 l -219,-351 -70,-7 c -38,-3 -200,-13 -360,-21 -332,-18 -385,-24 -463,-60 -95,-43 -132,-91 -132,-167 0,-24 7,-53 15,-66 23,-32 92,-69 155,-81 96,-19 290,-32 437,-30 79,2 144,-1 144,-5 1,-4 -154,-260 -344,-569 -388,-632 -399,-651 -462,-801 -80,-190 -107,-334 -85,-441 16,-76 41,-125 80,-159 28,-23 40,-26 108,-26 87,0 150,24 264,101 118,80 217,205 363,455 76,130 112,224 124,321 6,48 24,89 106,238 140,254 317,566 456,801 l 119,201 208,51 c 375,92 841,239 1155,364 346,137 800,379 1076,572 366,258 642,542 779,804 101,194 140,367 129,580 -14,266 -101,462 -297,666 -224,234 -465,351 -802,390 -160,19 -434,27 -573,16 z"
       id="path10"
       style="fill:#ff0000"
       inkscape:connector-curvature="0" />
    <path
       d="m 9559,5176 c -114,-40 -174,-92 -295,-251 -165,-218 -507,-715 -638,-927 l -48,-78 -67,0 c -124,0 -356,-21 -449,-40 -211,-43 -329,-141 -401,-335 -12,-31 -21,-74 -21,-96 l 0,-41 38,4 c 20,3 96,17 167,32 124,25 431,50 441,35 6,-11 -346,-511 -464,-659 -219,-273 -416,-495 -636,-716 -262,-262 -437,-405 -656,-534 -40,-24 -47,-26 -38,-10 7,10 14,18 15,16 6,-6 200,184 258,254 154,185 259,385 311,590 13,53 19,111 19,195 0,111 -2,124 -27,175 -15,30 -67,105 -114,165 -103,130 -150,221 -145,280 11,121 8,138 -25,157 -22,13 -61,20 -125,24 -118,8 -184,-14 -254,-82 -52,-50 -111,-163 -121,-233 -12,-80 -118,-235 -245,-357 -158,-151 -334,-239 -526,-263 -81,-10 -192,0 -246,23 l -34,14 13,88 c 31,207 26,427 -11,535 -35,102 -174,229 -288,264 -73,23 -249,31 -344,15 -158,-25 -303,-89 -508,-225 -457,-301 -777,-712 -881,-1128 -34,-136 -44,-384 -20,-497 24,-117 92,-244 181,-338 92,-97 159,-145 256,-179 68,-25 86,-27 234,-27 184,-1 240,10 374,75 156,74 311,200 466,381 202,235 295,378 380,583 26,63 53,115 59,115 6,0 27,-5 46,-10 74,-22 227,-31 333,-20 174,17 318,69 459,163 112,75 184,141 270,249 l 72,90 20,-23 c 35,-43 86,-166 98,-239 11,-65 10,-79 -10,-157 -12,-47 -44,-132 -70,-187 -136,-285 -322,-472 -572,-577 -148,-63 -238,-46 -332,63 -90,104 -178,148 -273,134 -65,-10 -134,-62 -167,-126 -56,-105 -28,-201 92,-313 160,-151 371,-227 630,-227 117,0 215,14 385,55 372,89 574,198 925,500 143,122 359,332 351,341 -3,4 -1,4 5,1 7,-4 1,-44 -19,-119 -38,-150 -48,-339 -23,-451 27,-121 105,-225 209,-279 58,-30 214,-37 307,-13 252,65 601,325 961,716 54,59 100,104 103,101 3,-3 6,-52 6,-109 0,-214 63,-372 209,-527 60,-63 144,-124 205,-150 100,-42 296,-58 434,-36 244,40 506,230 765,555 153,192 222,307 307,512 39,93 53,117 67,115 10,-1 80,-8 156,-15 77,-6 139,-15 138,-20 0,-4 -18,-63 -40,-130 -57,-179 -82,-312 -88,-462 -9,-224 28,-336 147,-449 84,-79 152,-105 300,-113 271,-15 558,122 859,412 233,224 377,455 510,820 72,196 69,188 89,179 9,-5 78,-9 152,-10 74,-1 138,-3 143,-3 4,-1 -8,-31 -27,-68 -50,-101 -93,-229 -117,-354 -18,-94 -20,-137 -17,-268 6,-189 30,-277 108,-394 55,-82 175,-202 241,-240 100,-58 161,-71 334,-71 188,-1 242,11 383,80 144,71 291,189 424,342 234,268 337,427 428,662 18,47 37,89 41,94 4,5 70,10 146,11 87,1 158,8 193,18 30,8 58,13 62,11 6,-4 -205,-363 -339,-574 -124,-196 -201,-377 -210,-496 -5,-68 -5,-72 25,-105 l 30,-34 94,0 c 121,0 161,19 261,124 94,99 188,238 307,456 217,396 332,575 484,751 112,130 188,198 313,281 193,127 391,205 528,207 69,1 88,-3 137,-27 161,-79 136,-207 -100,-519 -64,-84 -149,-197 -190,-251 -171,-228 -326,-497 -357,-622 -18,-71 -19,-149 -3,-213 15,-62 103,-152 167,-171 200,-59 446,29 797,285 154,112 378,300 520,437 129,124 164,180 164,262 0,63 -20,85 -74,85 -48,0 -65,-10 -153,-87 -168,-146 -512,-386 -659,-458 -44,-22 -97,-40 -125,-43 -41,-4 -51,-1 -73,21 l -26,26 19,51 c 36,95 94,179 335,490 429,552 549,774 533,982 -7,79 -16,99 -70,156 -64,65 -124,84 -293,90 -256,8 -460,-44 -762,-194 -159,-78 -201,-92 -169,-56 23,27 37,81 37,138 0,97 -56,133 -207,134 -140,0 -239,-36 -310,-113 -22,-24 -93,-132 -157,-240 -100,-168 -125,-204 -182,-254 -177,-157 -358,-242 -512,-243 -88,0 -91,4 -76,107 16,107 18,367 3,448 -16,88 -49,143 -132,222 -80,76 -129,101 -245,123 -78,16 -264,8 -344,-14 -206,-56 -481,-218 -698,-411 -188,-167 -320,-251 -410,-262 -60,-7 -176,18 -253,55 -41,19 -69,42 -95,77 -37,48 -40,50 -85,49 -37,0 -58,-8 -104,-40 -129,-89 -192,-175 -193,-264 0,-36 -14,-72 -64,-170 -180,-354 -365,-591 -567,-730 -205,-140 -317,-150 -359,-32 -26,76 2,164 162,513 80,174 95,199 120,208 102,36 368,224 568,401 175,156 763,723 870,841 245,267 391,471 495,691 91,193 129,350 130,538 0,119 -1,127 -27,172 -36,61 -108,123 -165,142 -65,22 -192,20 -289,-4 -103,-26 -278,-113 -378,-189 -295,-223 -628,-622 -1050,-1261 -281,-424 -503,-795 -656,-1092 -66,-129 -78,-147 -104,-152 -72,-15 -235,1 -301,28 l -31,13 13,89 c 21,134 20,404 -1,484 -30,116 -121,221 -241,280 -165,81 -440,63 -669,-44 -271,-125 -638,-428 -826,-681 -183,-247 -618,-719 -747,-811 -109,-79 -303,-154 -395,-154 -54,0 -103,27 -122,67 -47,99 9,269 225,688 114,222 246,413 570,831 l 149,191 237,-5 c 313,-5 393,12 498,109 56,52 124,187 132,261 8,77 2,80 -143,68 -206,-17 -444,-10 -444,12 0,10 396,583 559,808 57,80 118,164 135,188 27,38 31,52 31,105 0,78 -33,144 -85,169 -56,28 -235,25 -321,-6 z m 4070,-485 c 23,-15 7,-75 -50,-189 -145,-291 -510,-757 -996,-1269 -128,-136 -400,-393 -424,-401 -20,-8 -6,24 68,156 161,288 339,567 557,872 277,387 581,713 758,810 58,32 66,34 87,21 z M 4955,2926 c 40,-26 58,-73 57,-145 0,-35 -5,-68 -10,-73 -17,-17 -209,213 -196,234 10,15 120,3 149,-16 z m 5770,0 c 39,-26 59,-74 60,-143 0,-88 -11,-93 -72,-30 -89,92 -154,180 -140,189 18,13 124,2 152,-16 z m 4173,4 c 53,-24 72,-64 72,-153 0,-71 -4,-81 -31,-66 -21,11 -199,208 -199,220 0,24 105,23 158,-1 z M 4483,2756 c 76,-114 242,-296 355,-388 l 33,-27 -25,-49 c -82,-162 -295,-419 -436,-526 -138,-106 -299,-176 -404,-176 -70,0 -157,32 -206,76 -42,39 -88,131 -99,204 -40,253 232,627 643,884 49,31 92,56 96,56 4,0 23,-24 43,-54 z m 5781,-27 c 62,-87 217,-244 313,-317 40,-30 73,-57 73,-60 0,-16 -115,-202 -176,-282 -99,-131 -289,-312 -391,-373 -105,-63 -230,-107 -305,-107 -72,0 -159,32 -208,76 -21,19 -50,62 -65,96 -93,206 4,461 275,728 58,58 142,132 187,164 104,76 214,145 233,145 8,0 37,-31 64,-70 z m 4187,-11 c 87,-113 205,-235 300,-309 43,-35 79,-66 79,-69 0,-14 -127,-218 -175,-280 -72,-95 -229,-254 -305,-309 -149,-109 -290,-165 -400,-159 -97,5 -187,52 -230,118 -88,137 -84,291 14,476 107,201 283,381 535,546 58,37 108,68 111,68 4,0 36,-37 71,-82 z"
       id="path12"
       style="fill:#ff0000"
       inkscape:connector-curvature="0" />
    <path
       d="m 15270,4390 c -25,-5 -77,-26 -117,-45 -58,-29 -90,-55 -172,-142 -118,-124 -254,-296 -313,-395 -55,-93 -58,-142 -9,-175 27,-18 47,-23 101,-23 59,0 78,5 146,39 238,119 660,446 715,553 10,20 19,55 19,76 0,47 -36,85 -95,101 -58,15 -223,22 -275,11 z"
       id="path14"
       style="fill:#ff0000"
       inkscape:connector-curvature="0" />
  </g>
</svg>
